 <svg
                    width="17"
                    height="21"
                    viewBox="0 0 17 21"
                    fill="none"
                    xmlns="http://www.w3.org/2000/svg"
                  >
                    <path
                      d="M1.1347 8.12081V8.118C1.1347 3.98579 4.44838 0.634615 8.5 0.634615C12.5514 0.634615 15.8653 3.98553 15.8653 8.12308L15.8653 8.12589C15.8787 11.1505 14.0155 14.0445 12.0389 16.2433C11.0619 17.33 10.0821 18.2195 9.34606 18.8373C8.99954 19.1282 8.70811 19.358 8.49787 19.5189C7.81528 19.0044 6.31929 17.8096 4.8486 16.1621C2.91451 13.9954 1.12125 11.1532 1.1347 8.12081ZM3.86543 8.12308C3.86543 10.7084 5.93043 12.8192 8.5 12.8192C11.0696 12.8192 13.1346 10.7084 13.1346 8.12308C13.1346 5.53777 11.0696 3.42692 8.5 3.42692C5.93043 3.42692 3.86543 5.53777 3.86543 8.12308Z"
                      stroke="url(#paint0_linear_895_26)"
                      stroke-width="1.26923"
                    />
                    <defs>
                      <linearGradient
                        id="paint0_linear_895_26"
                        x1="8.56425"
                        y1="-8.22469"
                        x2="8.56425"
                        y2="27.5899"
                        gradientUnits="userSpaceOnUse"
                      >
                        <stop stop-color="#00D4E4" />
                        <stop offset="0.78125" stop-color="#1F59EE" />
                      </linearGradient>
                    </defs>
                  </svg>