<?xml version="1.0" encoding="UTF-8" standalone="no"?>
<!-- Created with Inkscape (http://www.inkscape.org/) -->

<svg
   width="210mm"
   height="297mm"
   viewBox="0 0 210 297"
   version="1.1"
   id="svg5"
   inkscape:version="1.1.2 (0a00cf5339, 2022-02-04)"
   sodipodi:docname="octo.svg"
   xmlns:inkscape="http://www.inkscape.org/namespaces/inkscape"
   xmlns:sodipodi="http://sodipodi.sourceforge.net/DTD/sodipodi-0.dtd"
   xmlns="http://www.w3.org/2000/svg"
   xmlns:svg="http://www.w3.org/2000/svg">
  <sodipodi:namedview
     id="namedview7"
     pagecolor="#ffffff"
     bordercolor="#cccccc"
     borderopacity="1"
     inkscape:pageshadow="0"
     inkscape:pageopacity="1"
     inkscape:pagecheckerboard="0"
     inkscape:document-units="mm"
     showgrid="false"
     inkscape:zoom="0.46324355"
     inkscape:cx="396.11993"
     inkscape:cy="560.1805"
     inkscape:window-width="1280"
     inkscape:window-height="742"
     inkscape:window-x="0"
     inkscape:window-y="0"
     inkscape:window-maximized="1"
     inkscape:current-layer="layer1" />
  <defs
     id="defs2" />
  <g
     inkscape:label="Layer 1"
     inkscape:groupmode="layer"
     id="layer1">
    <path
       style="fill:none;stroke:#000000;stroke-width:0.264583px;stroke-linecap:butt;stroke-linejoin:miter;stroke-opacity:1"
       d="m -163.70429,146.2866 c 36.84161,8.43826 76.137687,42.46821 104.463311,54.9901 C -5.5900878,224.99413 38.57621,158.19624 47.894108,122.47159 69.468433,39.756029 129.73982,9.0827196 171.22947,101.11135 235.0464,229.91281 315.29034,213.52109 315.29034,213.52109"
       id="path361"
       sodipodi:nodetypes="csscc" />
    <ellipse
       style="fill:#b3b3b3;fill-rule:evenodd;stroke-width:0.264583"
       id="path1197"
       cx="143.98927"
       cy="111.9302"
       rx="9.0698214"
       ry="8.4702997" />
    <path
       style="fill:none;stroke:#000000;stroke-width:0.264583px;stroke-linecap:butt;stroke-linejoin:miter;stroke-opacity:1"
       d="m 136.25438,148.39785 c 27.31698,12.87392 44.03231,-2.22201 46.75455,-19.2049"
       id="path1408"
       sodipodi:nodetypes="cc" />
    <path
       style="fill:none;stroke:#000000;stroke-width:0.264583px;stroke-linecap:butt;stroke-linejoin:miter;stroke-opacity:1"
       d="m -163.70429,146.2866 c 0,0 -12.34448,-4.95081 -27.01255,4.28557 -14.66807,9.23639 28.4385,61.06257 28.4385,61.06257 0,0 85.112437,89.48559 122.574868,44.79067 37.4624322,-44.69491 72.39016,12.17882 72.39016,12.17882 0,0 27.010182,44.40925 77.230132,-20.79465 50.21995,-65.2039 164.12986,18.18107 164.12986,18.18107 0,0 39.67975,28.90922 40.4617,-11.78016"
       id="path1903" />
    <path
       sodipodi:type="spiral"
       style="fill:none;fill-rule:evenodd;stroke:#000000"
       id="path2008"
       sodipodi:cx="1265.1024"
       sodipodi:cy="805.89124"
       sodipodi:expansion="1"
       sodipodi:revolution="3"
       sodipodi:radius="268.7796"
       sodipodi:argument="-18.191856"
       sodipodi:t0="0"
       d="m 1265.1024,805.89124 c 10.6651,8.23796 -5.8428,18.4406 -13.692,17.72602 -21.2708,-1.93646 -27.9967,-27.99966 -21.76,-45.11009 11.1559,-30.60654 49.2634,-38.91718 76.5281,-25.79402 40.0121,19.25877 50.1153,70.79898 29.828,107.94622 -27.0397,49.51143 -92.4288,61.42895 -139.3643,33.86201 -59.0634,-34.69019 -72.8018,-114.10317 -37.896,-170.78235 42.2757,-68.64607 135.8024,-84.20885 202.2005,-41.92999 78.2477,49.82418 95.6373,157.51711 45.9639,233.61846 -57.3498,87.862 -179.2422,107.0801 -265.0365,49.99799 -97.4849,-64.86037 -118.5329,-200.97457 -54.032,-296.45459 72.3604,-107.11415 222.7123,-129.99301 327.8727,-58.06597 116.748,79.85265 141.4585,244.45393 62.1,359.29071"
       transform="scale(0.26458333)" />
    <path
       sodipodi:type="spiral"
       style="fill:none;fill-rule:evenodd;stroke:#000000"
       id="path2010"
       sodipodi:cx="-471.4938"
       sodipodi:cy="176.03674"
       sodipodi:expansion="1"
       sodipodi:revolution="3"
       sodipodi:radius="112.99744"
       sodipodi:argument="-17.964031"
       sodipodi:t0="0"
       d="m -471.4938,176.03674 c 3.5856,4.38651 -4.14392,6.99748 -7.29067,5.95952 -8.5275,-2.81281 -8.80727,-14.12553 -4.62837,-20.54084 7.47508,-11.47549 23.87094,-11.26064 33.79102,-3.29723 14.55811,11.68664 13.80191,33.75405 1.96608,47.0412 -15.7753,17.70969 -43.68674,16.38154 -60.29138,0.63493 -20.89523,-19.81549 -18.98119,-53.64325 0.69622,-73.54155 23.83198,-24.0995 63.61322,-21.59249 86.79173,2.02736 27.31507,27.83518 24.21109,73.59157 -3.3585,100.04191 -31.8302,30.53796 -83.57553,26.83457 -113.29209,-4.68965 -33.76585,-35.81982 -29.46146,-93.56341 6.02079,-126.54227 39.80573,-36.997295 103.55416,-32.090814 139.79245,7.35194 40.23137,43.78894 34.72202,113.54707 -8.68309,153.04263"
       transform="scale(0.26458333)" />
    <path
       sodipodi:type="spiral"
       style="fill:none;fill-rule:evenodd;stroke:#000000"
       id="path2012"
       sodipodi:cx="-287.9827"
       sodipodi:cy="567.30804"
       sodipodi:expansion="1"
       sodipodi:revolution="3"
       sodipodi:radius="84.716675"
       sodipodi:argument="-18.241753"
       sodipodi:t0="0"
       d="m -287.9827,567.30804 c 3.48684,2.42564 -1.54942,5.89692 -4.03156,5.79536 -6.72645,-0.27521 -9.25347,-8.37412 -7.55915,-13.85848 3.03073,-9.81025 14.89622,-13.02548 23.68541,-9.32295 12.89848,5.43362 16.88916,21.49954 11.08674,33.51233 -7.73373,16.01117 -28.13073,20.79071 -43.33926,12.85053 -19.13838,-9.9919 -24.71159,-34.77496 -14.61432,-53.16617 12.22913,-22.27422 41.42651,-28.64362 62.9931,-16.37812 25.41547,14.45447 32.58264,48.0826 18.14191,72.82002 -16.6724,28.56033 -54.74173,36.52633 -82.64695,19.90571 -31.70768,-18.88542 -40.47329,-61.40299 -21.6695,-92.47387 21.09502,-34.85683 68.06581,-44.42262 102.30079,-23.43329 38.00732,23.30213 48.37373,74.7298 25.19709,112.12771"
       transform="scale(0.26458333)" />
    <path
       sodipodi:type="spiral"
       style="fill:none;fill-rule:evenodd;stroke:#000000"
       id="path2014"
       sodipodi:cx="907.14484"
       sodipodi:cy="231.13153"
       sodipodi:expansion="1"
       sodipodi:revolution="3"
       sodipodi:radius="74.229797"
       sodipodi:argument="-17.029812"
       sodipodi:t0="0"
       d="m 907.14484,231.13153 c -0.91699,3.60703 -5.31462,0.54351 -5.99513,-1.52409 -1.84413,-5.60305 4.02255,-10.16847 9.0433,-10.46615 8.98094,-0.53249 15.27006,8.21251 14.93719,16.5625 -0.48849,12.25396 -12.44088,20.47184 -24.08172,19.40823 -15.51539,-1.41764 -25.71325,-16.68048 -23.87925,-31.60093 2.3079,-18.77586 20.92482,-30.97456 39.12013,-28.35029 22.03696,3.17834 36.24726,25.17174 32.82133,46.63935 -4.03734,25.29883 -29.42023,41.52708 -54.15856,37.29235 -28.56138,-4.88916 -46.81168,-33.66976 -41.76339,-61.67776 5.73619,-31.82446 37.92006,-52.09961 69.19698,-46.23442 35.08797,6.57985 57.38996,42.17089 50.70545,76.71618 -7.42107,38.35181 -46.42214,62.68214 -84.23539,55.17649"
       transform="scale(0.26458333)" />
    <path
       sodipodi:type="spiral"
       style="fill:none;fill-rule:evenodd;stroke:#000000"
       id="path2016"
       sodipodi:cx="612.1095"
       sodipodi:cy="1009.2707"
       sodipodi:expansion="1"
       sodipodi:revolution="3"
       sodipodi:radius="64.514587"
       sodipodi:argument="-20.47525"
       sodipodi:t0="0"
       d="m 612.1095,1009.2707 c -0.17749,-3.2298 4.26612,-1.8327 5.36811,-0.295 2.98634,4.1671 -0.69178,9.4788 -4.77812,11.0312 -7.3095,2.777 -14.79911,-2.8399 -16.69434,-9.8512 -2.78133,-10.28935 4.99395,-20.21253 14.92437,-22.35747 13.23567,-2.85887 25.66169,7.14693 28.02056,19.99747 2.96839,16.1711 -9.2987,31.1286 -25.07061,33.6837 -19.1019,3.0945 -36.60564,-11.4496 -39.34679,-30.1437 -3.23035,-22.03041 13.59999,-42.08903 35.21686,-45.00994 24.95752,-3.3723 47.57657,15.74999 50.673,40.28994 3.51837,27.8839 -17.89975,53.0671 -45.36309,56.3362 -30.80972,3.6673 -58.55981,-20.0494 -61.99923,-50.4363 -3.81841,-33.73516 22.19879,-64.05408 55.50933,-67.6623"
       transform="scale(0.26458333)" />
    <path
       sodipodi:type="spiral"
       style="fill:none;fill-rule:evenodd;stroke:#000000"
       id="path2018"
       sodipodi:cx="-654.8028"
       sodipodi:cy="972.44202"
       sodipodi:expansion="1"
       sodipodi:revolution="3"
       sodipodi:radius="55.569069"
       sodipodi:argument="-21.372414"
       sodipodi:t0="0"
       d="m -654.8028,972.44202 c -2.26962,-1.61598 1.05856,-3.85668 2.68587,-3.77228 4.40991,0.22875 6.00931,5.55895 4.85868,9.144 -2.0582,6.41282 -9.86384,8.43661 -15.60213,5.9451 -8.42117,-3.6564 -10.92346,-14.22267 -7.03151,-22.06027 5.18736,-10.44629 18.60005,-13.43494 28.5184,-8.11792 12.48124,6.69093 15.95901,22.98613 9.20433,34.97654 -8.18081,14.52201 -27.37707,18.49031 -41.43467,10.29074 -16.56639,-9.66294 -21.02622,-31.77106 -11.37715,-47.89281 11.14023,-18.6132 36.16706,-23.56514 54.35094,-12.46356 20.66168,12.61432 26.10619,40.56449 13.54998,60.80908 -14.08618,22.71136 -44.96296,28.64876 -67.26722,14.63636 -24.76195,-15.5564 -31.19253,-49.36219 -15.72279,-73.72533"
       transform="scale(0.26458333)" />
    <rect
       style="fill:#b3b3b3;stroke-width:0.264583"
       id="rect2042"
       width="8.0989227"
       height="6.8852553"
       x="-62.245502"
       y="93.158661" />
    <rect
       style="fill:#b3b3b3;stroke-width:0.264583"
       id="rect2044"
       width="9.7622108"
       height="8.8044109"
       x="-183.14516"
       y="87.845146" />
    <rect
       style="fill:#b3b3b3;stroke-width:0.264583"
       id="rect2046"
       width="7.0082955"
       height="14.816708"
       x="-127.5721"
       y="264.51117" />
    <rect
       style="fill:#b3b3b3;stroke-width:0.264583"
       id="rect2048"
       width="4.0103478"
       height="15.330115"
       x="355.18204"
       y="62.059052" />
    <rect
       style="fill:#b3b3b3;stroke-width:0.264583"
       id="rect2050"
       width="15.441164"
       height="8.3792877"
       x="255.04323"
       y="136.32367" />
    <rect
       style="fill:#b3b3b3;stroke-width:0.264583"
       id="rect2052"
       width="48.000595"
       height="9.8503122"
       x="190.95786"
       y="253.5679" />
    <rect
       style="fill:#b3b3b3;stroke-width:0.264583"
       id="rect2054"
       width="14.952473"
       height="6.3170648"
       x="-26.249441"
       y="264.78287" />
    <rect
       style="fill:#b3b3b3;stroke-width:0.264583"
       id="rect2056"
       width="0.49737167"
       height="34.745632"
       x="5.1414304"
       y="98.65007" />
    <rect
       style="fill:#b3b3b3;stroke-width:0.264583"
       id="rect2058"
       width="13.047853"
       height="21.537962"
       x="44.031101"
       y="51.707462" />
    <rect
       style="fill:#b3b3b3;stroke-width:0.264583"
       id="rect2060"
       width="30.363775"
       height="14.595466"
       x="131.31215"
       y="28.426922" />
    <rect
       style="fill:#b3b3b3;stroke-width:0.264583"
       id="rect2062"
       width="9.6544666"
       height="23.306938"
       x="398.57236"
       y="139.03914" />
    <path
       sodipodi:type="star"
       style="fill:#b3b3b3"
       id="path2086"
       inkscape:flatsided="false"
       sodipodi:sides="5"
       sodipodi:cx="-676.29315"
       sodipodi:cy="796.36475"
       sodipodi:r1="63.055714"
       sodipodi:r2="31.527857"
       sodipodi:arg1="0.055766749"
       sodipodi:arg2="0.68408528"
       inkscape:rounded="0"
       inkscape:randomized="0"
       d="m -613.33546,799.87934 -38.52368,16.40989 -8.32159,41.03791 -27.51121,-31.56727 -41.60088,4.76711 21.52082,-35.91953 -17.38917,-38.09167 40.81181,9.36777 30.85378,-28.30906 3.70226,41.70914 z"
       transform="scale(0.26458333)"
       inkscape:transform-center-x="-1.3173659"
       inkscape:transform-center-y="0.28735283" />
    <path
       sodipodi:type="star"
       style="fill:#b3b3b3"
       id="path2088"
       inkscape:flatsided="false"
       sodipodi:sides="5"
       sodipodi:cx="367.63004"
       sodipodi:cy="1040.5372"
       sodipodi:r1="35.649353"
       sodipodi:r2="17.824677"
       sodipodi:arg1="-0.44451137"
       sodipodi:arg2="0.18380716"
       inkscape:rounded="0"
       inkscape:randomized="0"
       d="m 399.81502,1025.2074 -14.66057,18.5877 7.00082,22.6147 -22.20832,-8.1991 -19.34447,13.6465 0.93507,-23.6551 -18.95635,-14.1806 22.78622,-6.4205 7.6288,-22.4107 13.14759,19.687 z"
       transform="scale(0.26458333)"
       inkscape:transform-center-x="0.37886576"
       inkscape:transform-center-y="-0.53273784" />
    <path
       sodipodi:type="star"
       style="fill:#b3b3b3"
       id="path2090"
       inkscape:flatsided="false"
       sodipodi:sides="5"
       sodipodi:cx="1275.308"
       sodipodi:cy="1026.2629"
       sodipodi:r1="43.816048"
       sodipodi:r2="21.908026"
       sodipodi:arg1="2.6969977"
       sodipodi:arg2="3.3253163"
       inkscape:rounded="0"
       inkscape:randomized="0"
       d="m 1235.7515,1045.1079 18.0172,-22.8474 -8.6069,-27.79459 27.2967,10.07509 23.7746,-16.77465 -1.1469,29.07415 23.3004,17.4273 -28.0055,7.8937 -9.3741,27.5453 -16.1616,-24.1956 z"
       transform="scale(0.26458333)"
       inkscape:transform-center-x="-0.4659488"
       inkscape:transform-center-y="0.65447765" />
    <path
       sodipodi:type="star"
       style="fill:#b3b3b3"
       id="path2092"
       inkscape:flatsided="false"
       sodipodi:sides="5"
       sodipodi:cx="1557.787"
       sodipodi:cy="989.27228"
       sodipodi:r1="31.929699"
       sodipodi:r2="15.964849"
       sodipodi:arg1="-1.8239247"
       sodipodi:arg2="-1.1956061"
       inkscape:rounded="0"
       inkscape:randomized="0"
       d="m 1549.7907,958.36006 13.8466,16.05792 21.078,-2.30301 -10.9932,18.13105 8.7038,19.33468 -20.6408,-4.8523 -15.6987,14.2525 -1.7636,-21.12997 -18.4061,-10.52614 19.5509,-8.20672 z"
       transform="scale(0.26458333)"
       inkscape:transform-center-x="0.65378675"
       inkscape:transform-center-y="-0.15923148" />
    <path
       sodipodi:type="star"
       style="fill:#b3b3b3"
       id="path2094"
       inkscape:flatsided="false"
       sodipodi:sides="5"
       sodipodi:cx="1412.8188"
       sodipodi:cy="736.16992"
       sodipodi:r1="31.758314"
       sodipodi:r2="15.879158"
       sodipodi:arg1="-2.0041125"
       sodipodi:arg2="-1.375794"
       inkscape:rounded="0"
       inkscape:randomized="0"
       d="m 1399.4841,707.34676 16.4116,13.24496 20.2149,-6.01076 -7.5252,19.70132 11.9633,17.36809 -21.0625,-1.06887 -12.8211,16.74483 -5.4921,-20.36192 -19.8873,-7.01921 17.6682,-11.5155 z"
       transform="scale(0.26458333)"
       inkscape:transform-center-x="0.50314172"
       inkscape:transform-center-y="0.30866675" />
    <path
       sodipodi:type="star"
       style="fill:#b3b3b3"
       id="path2096"
       inkscape:flatsided="false"
       sodipodi:sides="5"
       sodipodi:cx="1166.8499"
       sodipodi:cy="733.85803"
       sodipodi:r1="33.848507"
       sodipodi:r2="16.924253"
       sodipodi:arg1="0.90756702"
       sodipodi:arg2="1.5358856"
       inkscape:rounded="0"
       inkscape:randomized="0"
       d="m 1187.6892,760.53093 -20.2486,-9.75896 -19.5185,11.14783 3.0242,-22.27327 -16.6338,-15.11827 22.1177,-4.00668 9.2382,-20.49143 10.6453,19.797 22.3433,2.45388 -15.5385,16.24189 z"
       transform="scale(0.26458333)"
       inkscape:transform-center-x="0.096599104"
       inkscape:transform-center-y="-0.76281192" />
    <path
       sodipodi:type="star"
       style="fill:#b3b3b3"
       id="path2098"
       inkscape:flatsided="false"
       sodipodi:sides="5"
       sodipodi:cx="699.39148"
       sodipodi:cy="854.21106"
       sodipodi:r1="54.258816"
       sodipodi:r2="27.129408"
       sodipodi:arg1="-1.2899213"
       sodipodi:arg2="-0.66160279"
       inkscape:rounded="0"
       inkscape:randomized="0"
       d="m 714.43183,802.07847 6.36498,35.46476 32.82343,14.8622 -31.7621,17.01267 -3.99179,35.80961 -25.99505,-24.95036 -35.29049,7.26936 15.69629,-32.43283 -17.81893,-31.3169 35.69588,4.90576 z"
       transform="scale(0.26458333)"
       inkscape:transform-center-x="-1.2297081"
       inkscape:transform-center-y="-0.14763257" />
    <path
       sodipodi:type="star"
       style="fill:#b3b3b3"
       id="path2100"
       inkscape:flatsided="false"
       sodipodi:sides="5"
       sodipodi:cx="192.29433"
       sodipodi:cy="663.06958"
       sodipodi:r1="23.976168"
       sodipodi:r2="11.988083"
       sodipodi:arg1="0.8826058"
       sodipodi:arg2="1.5109243"
       inkscape:rounded="0"
       inkscape:randomized="0"
       d="m 207.52256,681.58869 -14.51091,-6.55251 -13.62426,8.23903 1.74769,-15.82553 -12.04592,-10.41144 15.59105,-3.22821 6.17947,-14.67366 7.88811,13.83039 15.86504,1.34263 -10.71592,11.77586 z"
       transform="scale(0.26458333)"
       inkscape:transform-center-x="0.11729816"
       inkscape:transform-center-y="-0.4931291" />
    <path
       sodipodi:type="star"
       style="fill:#b3b3b3"
       id="path2102"
       inkscape:flatsided="false"
       sodipodi:sides="5"
       sodipodi:cx="-154.22122"
       sodipodi:cy="834.61658"
       sodipodi:r1="33.17807"
       sodipodi:r2="16.589037"
       sodipodi:arg1="1.6934037"
       sodipodi:arg2="2.3217222"
       inkscape:rounded="0"
       inkscape:randomized="0"
       d="m -158.27891,867.54558 -7.26128,-20.80146 -21.25227,-5.81101 17.53951,-13.33389 -1.04071,-22.00782 18.10128,12.56067 20.60908,-7.79057 -6.3523,21.09681 13.77783,17.19298 -22.02723,0.47788 z"
       transform="scale(0.26458333)"
       inkscape:transform-center-x="0.33175942"
       inkscape:transform-center-y="0.51644129" />
    <path
       sodipodi:type="star"
       style="fill:#b3b3b3"
       id="path2104"
       inkscape:flatsided="false"
       sodipodi:sides="5"
       sodipodi:cx="-400.78983"
       sodipodi:cy="750.99719"
       sodipodi:r1="27.595186"
       sodipodi:r2="13.797593"
       sodipodi:arg1="-1.1379292"
       sodipodi:arg2="-0.50961066"
       inkscape:rounded="0"
       inkscape:randomized="0"
       d="m -389.21433,725.9472 0.4689,18.31901 15.35659,9.99906 -17.27752,6.10684 -4.76422,17.69486 -11.14699,-14.54478 -18.30105,0.93697 10.3883,-15.09601 -6.54644,-17.11578 17.56731,5.21493 z"
       transform="scale(0.26458333)"
       inkscape:transform-center-x="-0.43817707"
       inkscape:transform-center-y="0.26719797" />
    <path
       sodipodi:type="star"
       style="fill:#b3b3b3"
       id="path2106"
       inkscape:flatsided="false"
       sodipodi:sides="5"
       sodipodi:cx="99.211082"
       sodipodi:cy="415.73425"
       sodipodi:r1="32.243889"
       sodipodi:r2="16.121944"
       sodipodi:arg1="2.4651207"
       sodipodi:arg2="3.0934392"
       inkscape:rounded="0"
       inkscape:randomized="0"
       d="m 74.06774,435.9204 9.040086,-19.41012 -10.864634,-18.4509 21.253665,2.59957 14.190493,-16.03452 4.0954,21.01675 19.63485,8.54102 -18.72257,10.38949 -2.0555,21.31317 -15.666582,-14.59569 z"
       transform="scale(0.26458333)"
       inkscape:transform-center-x="-0.69302577"
       inkscape:transform-center-y="-0.12689847" />
    <path
       sodipodi:type="star"
       style="fill:#b3b3b3"
       id="path2108"
       inkscape:flatsided="false"
       sodipodi:sides="5"
       sodipodi:cx="-481.20242"
       sodipodi:cy="339.78781"
       sodipodi:r1="26.616985"
       sodipodi:r2="13.308493"
       sodipodi:arg1="0.73665213"
       sodipodi:arg2="1.3649707"
       inkscape:rounded="0"
       inkscape:randomized="0"
       d="m -461.48664,357.66942 -16.99585,-4.85402 -13.63384,11.24895 -0.63556,-17.66399 -14.91148,-9.49043 16.60306,-6.06292 4.41803,-17.11437 10.89681,13.9169 17.64198,-1.08683 -9.86846,14.66404 z"
       transform="scale(0.26458333)"
       inkscape:transform-center-x="0.44476531"
       inkscape:transform-center-y="-0.23529851" />
  </g>
</svg>
